<?xml version="1.0" encoding="UTF-8" standalone="no"?>
<svg
   xmlns:dc="http://purl.org/dc/elements/1.1/"
   xmlns:cc="http://creativecommons.org/ns#"
   xmlns:rdf="http://www.w3.org/1999/02/22-rdf-syntax-ns#"
   xmlns:svg="http://www.w3.org/2000/svg"
   xmlns="http://www.w3.org/2000/svg"
   xmlns:sodipodi="http://sodipodi.sourceforge.net/DTD/sodipodi-0.dtd"
   xmlns:inkscape="http://www.inkscape.org/namespaces/inkscape"
   width="198"
   height="110"
   viewBox="0 0 198 110"
   version="1.1"
   id="svg1065"
   sodipodi:docname="logo.svg"
   inkscape:version="0.92.2 5c3e80d, 2017-08-06">
  <metadata
     id="metadata1071">
    <rdf:RDF>
      <cc:Work
         rdf:about="">
        <dc:format>image/svg+xml</dc:format>
        <dc:type
           rdf:resource="http://purl.org/dc/dcmitype/StillImage" />
        <dc:title></dc:title>
      </cc:Work>
    </rdf:RDF>
  </metadata>
  <defs
     id="defs1069" />
  <sodipodi:namedview
     pagecolor="#ffffff"
     bordercolor="#666666"
     borderopacity="1"
     objecttolerance="10"
     gridtolerance="10"
     guidetolerance="10"
     inkscape:pageopacity="0"
     inkscape:pageshadow="2"
     inkscape:window-width="1280"
     inkscape:window-height="755"
     id="namedview1067"
     showgrid="false"
     inkscape:zoom="0.59427059"
     inkscape:cx="49.5949"
     inkscape:cy="107.02303"
     inkscape:window-x="0"
     inkscape:window-y="1"
     inkscape:window-maximized="1"
     inkscape:current-layer="svg1065" />
  <g
     id="g1294"
     transform="matrix(1.3901463,0,0,1.3901463,6.5927766,-48.306617)">
    <polygon
       transform="translate(0,38)"
       style="fill:#7bc143;fill-rule:nonzero"
       id="polygon963"
       points="77.9,29.6 88.3,40 88.3,32 86.9,33.4 86.9,17.4 87.7,16.6 77,6 77,29.6 " />
    <polygon
       transform="translate(0,38)"
       style="fill:#006a71;fill-rule:nonzero"
       id="polygon965"
       points="104.3,16 94,26.4 101.9,26.4 100.5,25 116.5,25 117.3,25.7 127.9,15 104.3,15 " />
    <polygon
       transform="translate(0,38)"
       style="fill:#a2958a;fill-rule:nonzero"
       id="polygon967"
       points="117.3,25.7 116.6,26.4 101.9,26.4 107.5,32 107.5,30 118.9,41.3 118.9,42.4 133.9,42.4 " />
    <polygon
       transform="translate(0,38)"
       style="fill:#004544;fill-rule:nonzero"
       id="polygon969"
       points="100.5,25 101.9,26.4 116.6,26.4 117.3,25.7 116.5,25 " />
    <polygon
       transform="translate(0,38)"
       style="fill:#2fb3c6;fill-opacity:1;fill-rule:nonzero"
       id="polygon971"
       points="88.3,17.3 88.3,32 94,26.4 92,26.4 103.3,15 104.3,15 104.3,0 87.7,16.6 " />
    <polygon
       transform="translate(0,38)"
       style="fill:#00a94b;fill-rule:nonzero"
       id="polygon973"
       points="86.9,33.4 88.3,32 88.3,17.3 87.7,16.6 86.9,17.4 " />
    <polygon
       transform="translate(0,38)"
       style="fill:#00585b;fill-rule:nonzero"
       id="polygon975"
       points="92,26.4 94,26.4 104.3,16 104.3,15 103.3,15 " />
    <polygon
       transform="translate(0,38)"
       style="fill:#bfb6ad;fill-rule:nonzero"
       id="polygon977"
       points="117.9,42.4 107.5,32 107.5,39.9 108.9,38.6 108.9,54.6 108.2,55.3 118.9,65.9 118.9,42.4 " />
    <polygon
       transform="translate(0,38)"
       style="fill:#817263;fill-rule:nonzero"
       id="polygon979"
       points="107.5,30 107.5,32 117.9,42.4 118.9,42.4 118.9,41.3 " />
    <polygon
       transform="translate(0,38)"
       style="fill:#fdb924;fill-rule:nonzero"
       id="polygon981"
       points="91.5,56 101.9,45.6 93.9,45.6 95.3,47 79.3,47 78.6,46.2 67.9,56.9 91.5,56.9 " />
    <polygon
       transform="translate(0,38)"
       style="fill:#ffea53;fill-rule:nonzero"
       id="polygon983"
       points="79.2,45.6 93.9,45.6 88.3,40 88.3,41.9 77,30.6 77,29.6 61.9,29.6 78.6,46.2 " />
    <polygon
       transform="translate(0,38)"
       style="fill:#7bae40;fill-rule:nonzero"
       id="polygon985"
       points="88.3,41.9 88.3,40 77.9,29.6 77,29.6 77,30.6 " />
    <polygon
       transform="translate(0,38)"
       style="fill:#e89f1f;fill-rule:nonzero"
       id="polygon987"
       points="95.3,47 93.9,45.6 79.2,45.6 78.6,46.2 79.3,47 " />
    <polygon
       transform="translate(0,38)"
       style="fill:#f58025;fill-rule:nonzero"
       id="polygon989"
       points="107.5,54.6 107.5,39.9 101.9,45.6 103.8,45.6 92.5,56.9 91.5,56.9 91.5,72 108.2,55.3 " />
    <polygon
       transform="translate(0,38)"
       style="fill:#b75e17;fill-rule:nonzero"
       id="polygon991"
       points="108.9,38.6 107.5,39.9 107.5,54.6 108.2,55.3 108.9,54.6 " />
    <polygon
       transform="translate(0,38)"
       style="fill:#f26a21;fill-rule:nonzero"
       id="polygon993"
       points="103.8,45.6 101.9,45.6 91.5,56 91.5,56.9 92.5,56.9 " />
    <path
       style="fill:#64c0cf;fill-opacity:1;fill-rule:nonzero"
       inkscape:connector-curvature="0"
       id="path1051"
       d="m 18.8,64.7 v 16.8 c 0,3.3 -2.8,6.2 -6.1,6.2 -3.3,0 -6.1,-2.8 -6.2,-6.2 V 64.8 H 0 v 16.7 c 0,6.6 5,12.6 11.8,12.6 v 0 c 2.6,0 5,-0.8 7.1,-2.3 v 2 h 6.6 V 64.7 Z" />
    <path
       style="fill:#bfb7ae;fill-opacity:1;fill-rule:nonzero"
       inkscape:connector-curvature="0"
       id="path1053"
       d="m 44.8,64.7 c -3.3,0 -6.3,0.7 -8.9,2.8 V 64.7 H 29.4 V 93.8 H 36 c 0,0 0,-14.5 0,-14.5 0,-2.9 1.5,-5.4 3.9,-7 C 42,70.9 44.2,71 46.6,71 v -6.2 h -1.8" />
    <rect
       style="fill:#bfb7ae;fill-opacity:1;fill-rule:nonzero"
       id="rect1055"
       y="64.699997"
       x="49.900002"
       height="29.1"
       width="6.5" />
    <polygon
       transform="translate(0,38)"
       style="fill:#a2958a;fill-rule:nonzero"
       id="polygon1057"
       points="50.4,27 50.1,27 " />
    <rect
       style="fill:#a2968a;fill-opacity:1;fill-rule:nonzero"
       id="rect1059"
       y="55.599998"
       x="49.900002"
       height="7.3000002"
       width="6.5999999" />
  </g>
</svg>
